#N canvas 459 104 532 407 10;
#X obj 76 307 dac~;
#X obj 76 23 r trigger;
#X obj 99 51 mtof;
#X obj 245 51 loadbang;
#X msg 245 77 \; pd dsp 1;
#X obj 129 68 s sender;
#X obj 76 282 *~ 1;
#X obj 76 81 osc~;
#X obj 26 81 phasor~;
#X obj 186 171 t b b;
#X msg 186 202 0;
#X msg 225 196 1 200;
#X obj 203 225 line;
#X obj 186 149 bng 15 250 50 0 empty empty empty 17 7 0 10 -262144
-1 -1;
#X obj 186 124 r vol;
#X obj 275 151 r down;
#X obj 275 174 bng 15 250 50 0 empty empty empty 17 7 0 10 -262144
-1 -1;
#X msg 275 196 0 200;
#N canvas 0 22 450 300 thesound 1;
#X obj 115 183 osc~;
#X obj 168 153 osc~;
#X obj 114 236 outlet~ procout;
#X obj 122 157 *~;
#X obj 50 153 osc~;
#X obj 167 126 +~ 5;
#X obj 244 169 *~ 10;
#X obj 209 69 mtof;
#X obj 75 29 inlet freq;
#X obj 52 61 - 12;
#X obj 46 88 mtof;
#X connect 0 0 2 0;
#X connect 1 0 6 0;
#X connect 3 0 0 0;
#X connect 4 0 2 0;
#X connect 5 0 1 0;
#X connect 6 0 3 1;
#X connect 7 0 5 0;
#X connect 7 0 3 0;
#X connect 8 0 7 0;
#X connect 8 0 9 0;
#X connect 9 0 10 0;
#X connect 10 0 4 0;
#X restore 76 171 pd thesound;
#X connect 1 0 2 0;
#X connect 1 0 18 0;
#X connect 2 0 5 0;
#X connect 3 0 4 0;
#X connect 6 0 0 0;
#X connect 6 0 0 1;
#X connect 9 0 11 0;
#X connect 10 0 12 0;
#X connect 11 0 12 0;
#X connect 12 0 6 1;
#X connect 13 0 9 0;
#X connect 14 0 13 0;
#X connect 15 0 16 0;
#X connect 16 0 17 0;
#X connect 17 0 12 0;
#X connect 18 0 6 0;
